<mxfile host="app.diagrams.net" modified="2023-08-03T08:16:22.546Z" agent="Mozilla/5.0 (Windows NT 10.0; Win64; x64) AppleWebKit/537.36 (KHTML, like Gecko) Chrome/115.0.0.0 Safari/537.36 Edg/115.0.1901.188" etag="vtYNfjk6z44GvUP11ohI" version="21.6.6" type="device">
  <diagram name="Page-1" id="YgdFzLLuPVQQUd9hTPnb">
    <mxGraphModel dx="1914" dy="2151" grid="1" gridSize="10" guides="1" tooltips="1" connect="1" arrows="1" fold="1" page="1" pageScale="1" pageWidth="850" pageHeight="1100" math="0" shadow="0">
      <root>
        <mxCell id="0" />
        <mxCell id="1" parent="0" />
        <mxCell id="G9M6UIIhyfGLvSzEwQoU-1" value="Audit" style="shape=umlActor;verticalLabelPosition=bottom;verticalAlign=top;html=1;" parent="1" vertex="1">
          <mxGeometry x="60" y="160" width="30" height="60" as="geometry" />
        </mxCell>
        <mxCell id="G9M6UIIhyfGLvSzEwQoU-5" value="Customer" style="shape=umlActor;verticalLabelPosition=bottom;verticalAlign=top;html=1;" parent="1" vertex="1">
          <mxGeometry x="60" y="880" width="30" height="60" as="geometry" />
        </mxCell>
        <mxCell id="G9M6UIIhyfGLvSzEwQoU-6" value="Manager" style="shape=umlActor;verticalLabelPosition=bottom;verticalAlign=top;html=1;" parent="1" vertex="1">
          <mxGeometry x="820" width="30" height="60" as="geometry" />
        </mxCell>
        <mxCell id="G9M6UIIhyfGLvSzEwQoU-7" value="SM" style="shape=umlActor;verticalLabelPosition=bottom;verticalAlign=top;html=1;" parent="1" vertex="1">
          <mxGeometry x="60" y="340" width="30" height="60" as="geometry" />
        </mxCell>
        <mxCell id="G9M6UIIhyfGLvSzEwQoU-8" value="Staff" style="shape=umlActor;verticalLabelPosition=bottom;verticalAlign=top;html=1;" parent="1" vertex="1">
          <mxGeometry x="60" width="30" height="60" as="geometry" />
        </mxCell>
        <mxCell id="G9M6UIIhyfGLvSzEwQoU-9" value="Chef" style="shape=umlActor;verticalLabelPosition=bottom;verticalAlign=top;html=1;" parent="1" vertex="1">
          <mxGeometry x="820" y="160" width="30" height="60" as="geometry" />
        </mxCell>
        <mxCell id="G9M6UIIhyfGLvSzEwQoU-12" value="Login" style="ellipse;whiteSpace=wrap;html=1;" parent="1" vertex="1">
          <mxGeometry x="820" y="642.5" width="100" height="50" as="geometry" />
        </mxCell>
        <mxCell id="G9M6UIIhyfGLvSzEwQoU-13" value="Register" style="ellipse;whiteSpace=wrap;html=1;" parent="1" vertex="1">
          <mxGeometry x="400" y="780" width="100" height="50" as="geometry" />
        </mxCell>
        <mxCell id="G9M6UIIhyfGLvSzEwQoU-14" value="Change password" style="ellipse;whiteSpace=wrap;html=1;" parent="1" vertex="1">
          <mxGeometry x="820" y="707.5" width="100" height="50" as="geometry" />
        </mxCell>
        <mxCell id="G9M6UIIhyfGLvSzEwQoU-15" value="Inside" style="shape=umlFrame;whiteSpace=wrap;html=1;pointerEvents=0;width=70;height=30;" parent="1" vertex="1">
          <mxGeometry x="240" y="-140" width="420" height="820" as="geometry" />
        </mxCell>
        <mxCell id="G9M6UIIhyfGLvSzEwQoU-16" value="Outside" style="shape=umlFrame;whiteSpace=wrap;html=1;pointerEvents=0;width=80;height=30;" parent="1" vertex="1">
          <mxGeometry x="240" y="770" width="420" height="400" as="geometry" />
        </mxCell>
        <mxCell id="G9M6UIIhyfGLvSzEwQoU-17" value="Manage account" style="ellipse;whiteSpace=wrap;html=1;" parent="1" vertex="1">
          <mxGeometry x="400" y="-130" width="100" height="50" as="geometry" />
        </mxCell>
        <mxCell id="G9M6UIIhyfGLvSzEwQoU-18" value="General" style="shape=umlFrame;whiteSpace=wrap;html=1;pointerEvents=0;width=70;height=30;" parent="1" vertex="1">
          <mxGeometry x="760" y="600" width="220" height="200" as="geometry" />
        </mxCell>
        <mxCell id="G9M6UIIhyfGLvSzEwQoU-20" value="Manage receipt" style="ellipse;whiteSpace=wrap;html=1;" parent="1" vertex="1">
          <mxGeometry x="400" y="-10" width="100" height="50" as="geometry" />
        </mxCell>
        <mxCell id="G9M6UIIhyfGLvSzEwQoU-21" value="Manage product" style="ellipse;whiteSpace=wrap;html=1;" parent="1" vertex="1">
          <mxGeometry x="400" y="50" width="100" height="50" as="geometry" />
        </mxCell>
        <mxCell id="G9M6UIIhyfGLvSzEwQoU-22" value="Booking" style="ellipse;whiteSpace=wrap;html=1;" parent="1" vertex="1">
          <mxGeometry x="400" y="840" width="100" height="50" as="geometry" />
        </mxCell>
        <mxCell id="G9M6UIIhyfGLvSzEwQoU-26" value="Checkout" style="ellipse;whiteSpace=wrap;html=1;" parent="1" vertex="1">
          <mxGeometry x="400" y="230" width="100" height="50" as="geometry" />
        </mxCell>
        <mxCell id="G9M6UIIhyfGLvSzEwQoU-29" value="Reveune statistics" style="ellipse;whiteSpace=wrap;html=1;" parent="1" vertex="1">
          <mxGeometry x="400" y="350" width="100" height="50" as="geometry" />
        </mxCell>
        <mxCell id="G9M6UIIhyfGLvSzEwQoU-31" value="Order online" style="ellipse;whiteSpace=wrap;html=1;" parent="1" vertex="1">
          <mxGeometry x="400" y="900" width="100" height="50" as="geometry" />
        </mxCell>
        <mxCell id="G9M6UIIhyfGLvSzEwQoU-32" value="Accumulate reward point" style="ellipse;whiteSpace=wrap;html=1;" parent="1" vertex="1">
          <mxGeometry x="400" y="960" width="100" height="50" as="geometry" />
        </mxCell>
        <mxCell id="G9M6UIIhyfGLvSzEwQoU-33" value="Manage feedBack" style="ellipse;whiteSpace=wrap;html=1;" parent="1" vertex="1">
          <mxGeometry x="400" y="470" width="100" height="50" as="geometry" />
        </mxCell>
        <mxCell id="G9M6UIIhyfGLvSzEwQoU-34" value="FeedBack" style="ellipse;whiteSpace=wrap;html=1;" parent="1" vertex="1">
          <mxGeometry x="400" y="1020" width="100" height="50" as="geometry" />
        </mxCell>
        <mxCell id="UAwCzIYw2BESITKpwo4L-1" value="" style="endArrow=none;html=1;rounded=0;" parent="1" source="G9M6UIIhyfGLvSzEwQoU-7" target="G9M6UIIhyfGLvSzEwQoU-17" edge="1">
          <mxGeometry width="50" height="50" relative="1" as="geometry">
            <mxPoint x="360" y="310" as="sourcePoint" />
            <mxPoint x="410" y="260" as="targetPoint" />
          </mxGeometry>
        </mxCell>
        <mxCell id="UAwCzIYw2BESITKpwo4L-2" value="" style="endArrow=none;html=1;rounded=0;" parent="1" source="G9M6UIIhyfGLvSzEwQoU-7" target="G9M6UIIhyfGLvSzEwQoU-35" edge="1">
          <mxGeometry width="50" height="50" relative="1" as="geometry">
            <mxPoint x="100" y="220" as="sourcePoint" />
            <mxPoint x="410" y="260" as="targetPoint" />
          </mxGeometry>
        </mxCell>
        <mxCell id="UAwCzIYw2BESITKpwo4L-3" value="" style="endArrow=none;html=1;rounded=0;" parent="1" source="G9M6UIIhyfGLvSzEwQoU-28" target="G9M6UIIhyfGLvSzEwQoU-1" edge="1">
          <mxGeometry width="50" height="50" relative="1" as="geometry">
            <mxPoint x="360" y="310" as="sourcePoint" />
            <mxPoint x="410" y="260" as="targetPoint" />
          </mxGeometry>
        </mxCell>
        <mxCell id="UAwCzIYw2BESITKpwo4L-4" value="" style="endArrow=none;html=1;rounded=0;" parent="1" source="G9M6UIIhyfGLvSzEwQoU-29" target="G9M6UIIhyfGLvSzEwQoU-1" edge="1">
          <mxGeometry width="50" height="50" relative="1" as="geometry">
            <mxPoint x="360" y="310" as="sourcePoint" />
            <mxPoint x="410" y="260" as="targetPoint" />
          </mxGeometry>
        </mxCell>
        <mxCell id="UAwCzIYw2BESITKpwo4L-5" value="" style="endArrow=none;html=1;rounded=0;" parent="1" source="G9M6UIIhyfGLvSzEwQoU-7" target="G9M6UIIhyfGLvSzEwQoU-24" edge="1">
          <mxGeometry width="50" height="50" relative="1" as="geometry">
            <mxPoint x="440" y="-20" as="sourcePoint" />
            <mxPoint x="750" y="-40" as="targetPoint" />
          </mxGeometry>
        </mxCell>
        <mxCell id="UAwCzIYw2BESITKpwo4L-8" value="Boss" style="shape=umlActor;verticalLabelPosition=bottom;verticalAlign=top;html=1;" parent="1" vertex="1">
          <mxGeometry x="820" y="340" width="30" height="60" as="geometry" />
        </mxCell>
        <mxCell id="UAwCzIYw2BESITKpwo4L-12" value="" style="endArrow=none;html=1;rounded=0;" parent="1" source="G9M6UIIhyfGLvSzEwQoU-29" target="UAwCzIYw2BESITKpwo4L-8" edge="1">
          <mxGeometry width="50" height="50" relative="1" as="geometry">
            <mxPoint x="330" y="470" as="sourcePoint" />
            <mxPoint x="360" y="440" as="targetPoint" />
          </mxGeometry>
        </mxCell>
        <mxCell id="UAwCzIYw2BESITKpwo4L-13" value="" style="endArrow=none;html=1;rounded=0;" parent="1" source="G9M6UIIhyfGLvSzEwQoU-25" target="G9M6UIIhyfGLvSzEwQoU-7" edge="1">
          <mxGeometry width="50" height="50" relative="1" as="geometry">
            <mxPoint x="760" y="330" as="sourcePoint" />
            <mxPoint x="810" y="280" as="targetPoint" />
          </mxGeometry>
        </mxCell>
        <mxCell id="UAwCzIYw2BESITKpwo4L-14" value="" style="endArrow=none;html=1;rounded=0;" parent="1" source="G9M6UIIhyfGLvSzEwQoU-28" target="G9M6UIIhyfGLvSzEwQoU-8" edge="1">
          <mxGeometry width="50" height="50" relative="1" as="geometry">
            <mxPoint x="550" y="30" as="sourcePoint" />
            <mxPoint x="600" y="-20" as="targetPoint" />
          </mxGeometry>
        </mxCell>
        <mxCell id="UAwCzIYw2BESITKpwo4L-17" value="" style="endArrow=none;html=1;rounded=0;" parent="1" source="G9M6UIIhyfGLvSzEwQoU-28" target="G9M6UIIhyfGLvSzEwQoU-9" edge="1">
          <mxGeometry width="50" height="50" relative="1" as="geometry">
            <mxPoint x="390" y="480" as="sourcePoint" />
            <mxPoint x="440" y="430" as="targetPoint" />
          </mxGeometry>
        </mxCell>
        <mxCell id="UAwCzIYw2BESITKpwo4L-19" value="" style="endArrow=none;html=1;rounded=0;" parent="1" source="G9M6UIIhyfGLvSzEwQoU-26" target="G9M6UIIhyfGLvSzEwQoU-1" edge="1">
          <mxGeometry width="50" height="50" relative="1" as="geometry">
            <mxPoint x="490" y="253" as="sourcePoint" />
            <mxPoint x="80" y="280" as="targetPoint" />
          </mxGeometry>
        </mxCell>
        <mxCell id="G9M6UIIhyfGLvSzEwQoU-28" value="Manage order" style="ellipse;whiteSpace=wrap;html=1;" parent="1" vertex="1">
          <mxGeometry x="400" y="110" width="100" height="50" as="geometry" />
        </mxCell>
        <mxCell id="G9M6UIIhyfGLvSzEwQoU-35" value="Logger" style="ellipse;whiteSpace=wrap;html=1;" parent="1" vertex="1">
          <mxGeometry x="400" y="530" width="100" height="50" as="geometry" />
        </mxCell>
        <mxCell id="G9M6UIIhyfGLvSzEwQoU-24" value="Manage supplier" style="ellipse;whiteSpace=wrap;html=1;" parent="1" vertex="1">
          <mxGeometry x="400" y="-70" width="100" height="50" as="geometry" />
        </mxCell>
        <mxCell id="G9M6UIIhyfGLvSzEwQoU-25" value="Manage discount" style="ellipse;whiteSpace=wrap;html=1;" parent="1" vertex="1">
          <mxGeometry x="400" y="170" width="100" height="50" as="geometry" />
        </mxCell>
        <mxCell id="UAwCzIYw2BESITKpwo4L-22" value="" style="endArrow=none;html=1;rounded=0;" parent="1" source="G9M6UIIhyfGLvSzEwQoU-5" target="G9M6UIIhyfGLvSzEwQoU-34" edge="1">
          <mxGeometry width="50" height="50" relative="1" as="geometry">
            <mxPoint x="360" y="910" as="sourcePoint" />
            <mxPoint x="410" y="860" as="targetPoint" />
          </mxGeometry>
        </mxCell>
        <mxCell id="UAwCzIYw2BESITKpwo4L-23" value="" style="endArrow=none;html=1;rounded=0;" parent="1" source="G9M6UIIhyfGLvSzEwQoU-5" target="G9M6UIIhyfGLvSzEwQoU-32" edge="1">
          <mxGeometry width="50" height="50" relative="1" as="geometry">
            <mxPoint x="360" y="910" as="sourcePoint" />
            <mxPoint x="410" y="860" as="targetPoint" />
          </mxGeometry>
        </mxCell>
        <mxCell id="UAwCzIYw2BESITKpwo4L-24" value="" style="endArrow=none;html=1;rounded=0;" parent="1" source="G9M6UIIhyfGLvSzEwQoU-5" target="G9M6UIIhyfGLvSzEwQoU-31" edge="1">
          <mxGeometry width="50" height="50" relative="1" as="geometry">
            <mxPoint x="360" y="910" as="sourcePoint" />
            <mxPoint x="410" y="860" as="targetPoint" />
          </mxGeometry>
        </mxCell>
        <mxCell id="UAwCzIYw2BESITKpwo4L-25" value="" style="endArrow=none;html=1;rounded=0;" parent="1" source="G9M6UIIhyfGLvSzEwQoU-5" target="G9M6UIIhyfGLvSzEwQoU-22" edge="1">
          <mxGeometry width="50" height="50" relative="1" as="geometry">
            <mxPoint x="90" y="900" as="sourcePoint" />
            <mxPoint x="410" y="860" as="targetPoint" />
          </mxGeometry>
        </mxCell>
        <mxCell id="UAwCzIYw2BESITKpwo4L-26" value="" style="endArrow=none;html=1;rounded=0;" parent="1" source="G9M6UIIhyfGLvSzEwQoU-5" target="G9M6UIIhyfGLvSzEwQoU-13" edge="1">
          <mxGeometry width="50" height="50" relative="1" as="geometry">
            <mxPoint x="360" y="910" as="sourcePoint" />
            <mxPoint x="410" y="860" as="targetPoint" />
          </mxGeometry>
        </mxCell>
        <mxCell id="UAwCzIYw2BESITKpwo4L-30" value="Manage account" style="swimlane;fontStyle=0;childLayout=stackLayout;horizontal=1;startSize=30;horizontalStack=0;resizeParent=1;resizeParentMax=0;resizeLast=0;collapsible=1;marginBottom=0;whiteSpace=wrap;html=1;" parent="1" vertex="1">
          <mxGeometry x="30" y="-480" width="140" height="210" as="geometry" />
        </mxCell>
        <mxCell id="UAwCzIYw2BESITKpwo4L-41" value="updateInfo" style="text;strokeColor=none;fillColor=none;align=left;verticalAlign=middle;spacingLeft=4;spacingRight=4;overflow=hidden;points=[[0,0.5],[1,0.5]];portConstraint=eastwest;rotatable=0;whiteSpace=wrap;html=1;" parent="UAwCzIYw2BESITKpwo4L-30" vertex="1">
          <mxGeometry y="30" width="140" height="30" as="geometry" />
        </mxCell>
        <mxCell id="UAwCzIYw2BESITKpwo4L-31" value="lockAccount" style="text;strokeColor=none;fillColor=none;align=left;verticalAlign=middle;spacingLeft=4;spacingRight=4;overflow=hidden;points=[[0,0.5],[1,0.5]];portConstraint=eastwest;rotatable=0;whiteSpace=wrap;html=1;" parent="UAwCzIYw2BESITKpwo4L-30" vertex="1">
          <mxGeometry y="60" width="140" height="30" as="geometry" />
        </mxCell>
        <mxCell id="UAwCzIYw2BESITKpwo4L-32" value="unLockAccount" style="text;strokeColor=none;fillColor=none;align=left;verticalAlign=middle;spacingLeft=4;spacingRight=4;overflow=hidden;points=[[0,0.5],[1,0.5]];portConstraint=eastwest;rotatable=0;whiteSpace=wrap;html=1;" parent="UAwCzIYw2BESITKpwo4L-30" vertex="1">
          <mxGeometry y="90" width="140" height="30" as="geometry" />
        </mxCell>
        <mxCell id="UAwCzIYw2BESITKpwo4L-33" value="createAccount" style="text;strokeColor=none;fillColor=none;align=left;verticalAlign=middle;spacingLeft=4;spacingRight=4;overflow=hidden;points=[[0,0.5],[1,0.5]];portConstraint=eastwest;rotatable=0;whiteSpace=wrap;html=1;" parent="UAwCzIYw2BESITKpwo4L-30" vertex="1">
          <mxGeometry y="120" width="140" height="30" as="geometry" />
        </mxCell>
        <mxCell id="UAwCzIYw2BESITKpwo4L-38" value="decentralized" style="text;strokeColor=none;fillColor=none;align=left;verticalAlign=middle;spacingLeft=4;spacingRight=4;overflow=hidden;points=[[0,0.5],[1,0.5]];portConstraint=eastwest;rotatable=0;whiteSpace=wrap;html=1;" parent="UAwCzIYw2BESITKpwo4L-30" vertex="1">
          <mxGeometry y="150" width="140" height="30" as="geometry" />
        </mxCell>
        <mxCell id="UAwCzIYw2BESITKpwo4L-81" value="findAccount" style="text;strokeColor=none;fillColor=none;align=left;verticalAlign=middle;spacingLeft=4;spacingRight=4;overflow=hidden;points=[[0,0.5],[1,0.5]];portConstraint=eastwest;rotatable=0;whiteSpace=wrap;html=1;" parent="UAwCzIYw2BESITKpwo4L-30" vertex="1">
          <mxGeometry y="180" width="140" height="30" as="geometry" />
        </mxCell>
        <mxCell id="UAwCzIYw2BESITKpwo4L-34" value="Manage parner" style="swimlane;fontStyle=0;childLayout=stackLayout;horizontal=1;startSize=30;horizontalStack=0;resizeParent=1;resizeParentMax=0;resizeLast=0;collapsible=1;marginBottom=0;whiteSpace=wrap;html=1;" parent="1" vertex="1">
          <mxGeometry x="990" y="-480" width="140" height="120" as="geometry" />
        </mxCell>
        <mxCell id="UAwCzIYw2BESITKpwo4L-35" value="addNewParner" style="text;strokeColor=none;fillColor=none;align=left;verticalAlign=middle;spacingLeft=4;spacingRight=4;overflow=hidden;points=[[0,0.5],[1,0.5]];portConstraint=eastwest;rotatable=0;whiteSpace=wrap;html=1;" parent="UAwCzIYw2BESITKpwo4L-34" vertex="1">
          <mxGeometry y="30" width="140" height="30" as="geometry" />
        </mxCell>
        <mxCell id="UAwCzIYw2BESITKpwo4L-36" value="updateParner" style="text;strokeColor=none;fillColor=none;align=left;verticalAlign=middle;spacingLeft=4;spacingRight=4;overflow=hidden;points=[[0,0.5],[1,0.5]];portConstraint=eastwest;rotatable=0;whiteSpace=wrap;html=1;" parent="UAwCzIYw2BESITKpwo4L-34" vertex="1">
          <mxGeometry y="60" width="140" height="30" as="geometry" />
        </mxCell>
        <mxCell id="UAwCzIYw2BESITKpwo4L-49" value="deleteParner" style="text;strokeColor=none;fillColor=none;align=left;verticalAlign=middle;spacingLeft=4;spacingRight=4;overflow=hidden;points=[[0,0.5],[1,0.5]];portConstraint=eastwest;rotatable=0;whiteSpace=wrap;html=1;" parent="UAwCzIYw2BESITKpwo4L-34" vertex="1">
          <mxGeometry y="90" width="140" height="30" as="geometry" />
        </mxCell>
        <mxCell id="UAwCzIYw2BESITKpwo4L-39" value="" style="endArrow=none;html=1;rounded=0;" parent="1" source="G9M6UIIhyfGLvSzEwQoU-30" target="UAwCzIYw2BESITKpwo4L-8" edge="1">
          <mxGeometry width="50" height="50" relative="1" as="geometry">
            <mxPoint x="730" y="250" as="sourcePoint" />
            <mxPoint x="780" y="200" as="targetPoint" />
          </mxGeometry>
        </mxCell>
        <mxCell id="UAwCzIYw2BESITKpwo4L-42" value="" style="endArrow=none;html=1;rounded=0;" parent="1" source="G9M6UIIhyfGLvSzEwQoU-7" target="G9M6UIIhyfGLvSzEwQoU-33" edge="1">
          <mxGeometry width="50" height="50" relative="1" as="geometry">
            <mxPoint x="210" y="350" as="sourcePoint" />
            <mxPoint x="260" y="300" as="targetPoint" />
          </mxGeometry>
        </mxCell>
        <mxCell id="UAwCzIYw2BESITKpwo4L-43" value="Delivery partner" style="ellipse;whiteSpace=wrap;html=1;" parent="1" vertex="1">
          <mxGeometry x="400" y="290" width="100" height="50" as="geometry" />
        </mxCell>
        <mxCell id="UAwCzIYw2BESITKpwo4L-44" value="" style="endArrow=none;html=1;rounded=0;" parent="1" source="G9M6UIIhyfGLvSzEwQoU-1" target="UAwCzIYw2BESITKpwo4L-43" edge="1">
          <mxGeometry width="50" height="50" relative="1" as="geometry">
            <mxPoint x="130" y="160" as="sourcePoint" />
            <mxPoint x="180" y="110" as="targetPoint" />
          </mxGeometry>
        </mxCell>
        <mxCell id="G9M6UIIhyfGLvSzEwQoU-30" value="Report" style="ellipse;whiteSpace=wrap;html=1;" parent="1" vertex="1">
          <mxGeometry x="400" y="410" width="100" height="50" as="geometry" />
        </mxCell>
        <mxCell id="UAwCzIYw2BESITKpwo4L-45" value="Manage supplier" style="swimlane;fontStyle=0;childLayout=stackLayout;horizontal=1;startSize=30;horizontalStack=0;resizeParent=1;resizeParentMax=0;resizeLast=0;collapsible=1;marginBottom=0;whiteSpace=wrap;html=1;" parent="1" vertex="1">
          <mxGeometry x="190" y="-480" width="140" height="150" as="geometry" />
        </mxCell>
        <mxCell id="UAwCzIYw2BESITKpwo4L-46" value="addNewSupplier" style="text;strokeColor=none;fillColor=none;align=left;verticalAlign=middle;spacingLeft=4;spacingRight=4;overflow=hidden;points=[[0,0.5],[1,0.5]];portConstraint=eastwest;rotatable=0;whiteSpace=wrap;html=1;" parent="UAwCzIYw2BESITKpwo4L-45" vertex="1">
          <mxGeometry y="30" width="140" height="30" as="geometry" />
        </mxCell>
        <mxCell id="UAwCzIYw2BESITKpwo4L-47" value="updateSupplier" style="text;strokeColor=none;fillColor=none;align=left;verticalAlign=middle;spacingLeft=4;spacingRight=4;overflow=hidden;points=[[0,0.5],[1,0.5]];portConstraint=eastwest;rotatable=0;whiteSpace=wrap;html=1;" parent="UAwCzIYw2BESITKpwo4L-45" vertex="1">
          <mxGeometry y="60" width="140" height="30" as="geometry" />
        </mxCell>
        <mxCell id="UAwCzIYw2BESITKpwo4L-48" value="deleteSupplier" style="text;strokeColor=none;fillColor=none;align=left;verticalAlign=middle;spacingLeft=4;spacingRight=4;overflow=hidden;points=[[0,0.5],[1,0.5]];portConstraint=eastwest;rotatable=0;whiteSpace=wrap;html=1;" parent="UAwCzIYw2BESITKpwo4L-45" vertex="1">
          <mxGeometry y="90" width="140" height="30" as="geometry" />
        </mxCell>
        <mxCell id="UAwCzIYw2BESITKpwo4L-82" value="findSupplier" style="text;strokeColor=none;fillColor=none;align=left;verticalAlign=middle;spacingLeft=4;spacingRight=4;overflow=hidden;points=[[0,0.5],[1,0.5]];portConstraint=eastwest;rotatable=0;whiteSpace=wrap;html=1;" parent="UAwCzIYw2BESITKpwo4L-45" vertex="1">
          <mxGeometry y="120" width="140" height="30" as="geometry" />
        </mxCell>
        <mxCell id="UAwCzIYw2BESITKpwo4L-50" value="Manage receipt" style="swimlane;fontStyle=0;childLayout=stackLayout;horizontal=1;startSize=30;horizontalStack=0;resizeParent=1;resizeParentMax=0;resizeLast=0;collapsible=1;marginBottom=0;whiteSpace=wrap;html=1;" parent="1" vertex="1">
          <mxGeometry x="350" y="-480" width="140" height="120" as="geometry" />
        </mxCell>
        <mxCell id="UAwCzIYw2BESITKpwo4L-51" value="createReceipt" style="text;strokeColor=none;fillColor=none;align=left;verticalAlign=middle;spacingLeft=4;spacingRight=4;overflow=hidden;points=[[0,0.5],[1,0.5]];portConstraint=eastwest;rotatable=0;whiteSpace=wrap;html=1;" parent="UAwCzIYw2BESITKpwo4L-50" vertex="1">
          <mxGeometry y="30" width="140" height="30" as="geometry" />
        </mxCell>
        <mxCell id="UAwCzIYw2BESITKpwo4L-52" value="writeNote" style="text;strokeColor=none;fillColor=none;align=left;verticalAlign=middle;spacingLeft=4;spacingRight=4;overflow=hidden;points=[[0,0.5],[1,0.5]];portConstraint=eastwest;rotatable=0;whiteSpace=wrap;html=1;" parent="UAwCzIYw2BESITKpwo4L-50" vertex="1">
          <mxGeometry y="60" width="140" height="30" as="geometry" />
        </mxCell>
        <mxCell id="UAwCzIYw2BESITKpwo4L-83" value="findReceipt" style="text;strokeColor=none;fillColor=none;align=left;verticalAlign=middle;spacingLeft=4;spacingRight=4;overflow=hidden;points=[[0,0.5],[1,0.5]];portConstraint=eastwest;rotatable=0;whiteSpace=wrap;html=1;" parent="UAwCzIYw2BESITKpwo4L-50" vertex="1">
          <mxGeometry y="90" width="140" height="30" as="geometry" />
        </mxCell>
        <mxCell id="UAwCzIYw2BESITKpwo4L-54" value="Manage product" style="swimlane;fontStyle=0;childLayout=stackLayout;horizontal=1;startSize=30;horizontalStack=0;resizeParent=1;resizeParentMax=0;resizeLast=0;collapsible=1;marginBottom=0;whiteSpace=wrap;html=1;" parent="1" vertex="1">
          <mxGeometry x="510" y="-480" width="140" height="300" as="geometry" />
        </mxCell>
        <mxCell id="UAwCzIYw2BESITKpwo4L-55" value="createProduct" style="text;strokeColor=none;fillColor=none;align=left;verticalAlign=middle;spacingLeft=4;spacingRight=4;overflow=hidden;points=[[0,0.5],[1,0.5]];portConstraint=eastwest;rotatable=0;whiteSpace=wrap;html=1;" parent="UAwCzIYw2BESITKpwo4L-54" vertex="1">
          <mxGeometry y="30" width="140" height="30" as="geometry" />
        </mxCell>
        <mxCell id="UAwCzIYw2BESITKpwo4L-56" value="updateProduct" style="text;strokeColor=none;fillColor=none;align=left;verticalAlign=middle;spacingLeft=4;spacingRight=4;overflow=hidden;points=[[0,0.5],[1,0.5]];portConstraint=eastwest;rotatable=0;whiteSpace=wrap;html=1;" parent="UAwCzIYw2BESITKpwo4L-54" vertex="1">
          <mxGeometry y="60" width="140" height="30" as="geometry" />
        </mxCell>
        <mxCell id="UAwCzIYw2BESITKpwo4L-57" value="deleteProduct" style="text;strokeColor=none;fillColor=none;align=left;verticalAlign=middle;spacingLeft=4;spacingRight=4;overflow=hidden;points=[[0,0.5],[1,0.5]];portConstraint=eastwest;rotatable=0;whiteSpace=wrap;html=1;" parent="UAwCzIYw2BESITKpwo4L-54" vertex="1">
          <mxGeometry y="90" width="140" height="30" as="geometry" />
        </mxCell>
        <mxCell id="UAwCzIYw2BESITKpwo4L-58" value="addCategory" style="text;strokeColor=none;fillColor=none;align=left;verticalAlign=middle;spacingLeft=4;spacingRight=4;overflow=hidden;points=[[0,0.5],[1,0.5]];portConstraint=eastwest;rotatable=0;whiteSpace=wrap;html=1;" parent="UAwCzIYw2BESITKpwo4L-54" vertex="1">
          <mxGeometry y="120" width="140" height="30" as="geometry" />
        </mxCell>
        <mxCell id="UAwCzIYw2BESITKpwo4L-59" value="updateCategory" style="text;strokeColor=none;fillColor=none;align=left;verticalAlign=middle;spacingLeft=4;spacingRight=4;overflow=hidden;points=[[0,0.5],[1,0.5]];portConstraint=eastwest;rotatable=0;whiteSpace=wrap;html=1;" parent="UAwCzIYw2BESITKpwo4L-54" vertex="1">
          <mxGeometry y="150" width="140" height="30" as="geometry" />
        </mxCell>
        <mxCell id="UAwCzIYw2BESITKpwo4L-60" value="deleteCategory" style="text;strokeColor=none;fillColor=none;align=left;verticalAlign=middle;spacingLeft=4;spacingRight=4;overflow=hidden;points=[[0,0.5],[1,0.5]];portConstraint=eastwest;rotatable=0;whiteSpace=wrap;html=1;" parent="UAwCzIYw2BESITKpwo4L-54" vertex="1">
          <mxGeometry y="180" width="140" height="30" as="geometry" />
        </mxCell>
        <mxCell id="UAwCzIYw2BESITKpwo4L-84" value="findProductOfCategory" style="text;strokeColor=none;fillColor=none;align=left;verticalAlign=middle;spacingLeft=4;spacingRight=4;overflow=hidden;points=[[0,0.5],[1,0.5]];portConstraint=eastwest;rotatable=0;whiteSpace=wrap;html=1;" parent="UAwCzIYw2BESITKpwo4L-54" vertex="1">
          <mxGeometry y="210" width="140" height="30" as="geometry" />
        </mxCell>
        <mxCell id="UAwCzIYw2BESITKpwo4L-85" value="findProduct" style="text;strokeColor=none;fillColor=none;align=left;verticalAlign=middle;spacingLeft=4;spacingRight=4;overflow=hidden;points=[[0,0.5],[1,0.5]];portConstraint=eastwest;rotatable=0;whiteSpace=wrap;html=1;" parent="UAwCzIYw2BESITKpwo4L-54" vertex="1">
          <mxGeometry y="240" width="140" height="30" as="geometry" />
        </mxCell>
        <mxCell id="UAwCzIYw2BESITKpwo4L-86" value="findDraftProduct" style="text;strokeColor=none;fillColor=none;align=left;verticalAlign=middle;spacingLeft=4;spacingRight=4;overflow=hidden;points=[[0,0.5],[1,0.5]];portConstraint=eastwest;rotatable=0;whiteSpace=wrap;html=1;" parent="UAwCzIYw2BESITKpwo4L-54" vertex="1">
          <mxGeometry y="270" width="140" height="30" as="geometry" />
        </mxCell>
        <mxCell id="UAwCzIYw2BESITKpwo4L-62" value="Manage order" style="swimlane;fontStyle=0;childLayout=stackLayout;horizontal=1;startSize=30;horizontalStack=0;resizeParent=1;resizeParentMax=0;resizeLast=0;collapsible=1;marginBottom=0;whiteSpace=wrap;html=1;" parent="1" vertex="1">
          <mxGeometry x="670" y="-480" width="140" height="300" as="geometry" />
        </mxCell>
        <mxCell id="UAwCzIYw2BESITKpwo4L-63" value="createOrder(s)" style="text;strokeColor=none;fillColor=none;align=left;verticalAlign=middle;spacingLeft=4;spacingRight=4;overflow=hidden;points=[[0,0.5],[1,0.5]];portConstraint=eastwest;rotatable=0;whiteSpace=wrap;html=1;" parent="UAwCzIYw2BESITKpwo4L-62" vertex="1">
          <mxGeometry y="30" width="140" height="30" as="geometry" />
        </mxCell>
        <mxCell id="UAwCzIYw2BESITKpwo4L-64" value="invokeProduct" style="text;strokeColor=none;fillColor=none;align=left;verticalAlign=middle;spacingLeft=4;spacingRight=4;overflow=hidden;points=[[0,0.5],[1,0.5]];portConstraint=eastwest;rotatable=0;whiteSpace=wrap;html=1;" parent="UAwCzIYw2BESITKpwo4L-62" vertex="1">
          <mxGeometry y="60" width="140" height="30" as="geometry" />
        </mxCell>
        <mxCell id="UAwCzIYw2BESITKpwo4L-65" value="removeProduct" style="text;strokeColor=none;fillColor=none;align=left;verticalAlign=middle;spacingLeft=4;spacingRight=4;overflow=hidden;points=[[0,0.5],[1,0.5]];portConstraint=eastwest;rotatable=0;whiteSpace=wrap;html=1;" parent="UAwCzIYw2BESITKpwo4L-62" vertex="1">
          <mxGeometry y="90" width="140" height="30" as="geometry" />
        </mxCell>
        <mxCell id="UAwCzIYw2BESITKpwo4L-66" value="writeNoteToOrder" style="text;strokeColor=none;fillColor=none;align=left;verticalAlign=middle;spacingLeft=4;spacingRight=4;overflow=hidden;points=[[0,0.5],[1,0.5]];portConstraint=eastwest;rotatable=0;whiteSpace=wrap;html=1;" parent="UAwCzIYw2BESITKpwo4L-62" vertex="1">
          <mxGeometry y="120" width="140" height="30" as="geometry" />
        </mxCell>
        <mxCell id="UAwCzIYw2BESITKpwo4L-67" value="writeNoteToOrderDetail" style="text;strokeColor=none;fillColor=none;align=left;verticalAlign=middle;spacingLeft=4;spacingRight=4;overflow=hidden;points=[[0,0.5],[1,0.5]];portConstraint=eastwest;rotatable=0;whiteSpace=wrap;html=1;" parent="UAwCzIYw2BESITKpwo4L-62" vertex="1">
          <mxGeometry y="150" width="140" height="30" as="geometry" />
        </mxCell>
        <mxCell id="UAwCzIYw2BESITKpwo4L-68" value="updateStatus" style="text;strokeColor=none;fillColor=none;align=left;verticalAlign=middle;spacingLeft=4;spacingRight=4;overflow=hidden;points=[[0,0.5],[1,0.5]];portConstraint=eastwest;rotatable=0;whiteSpace=wrap;html=1;" parent="UAwCzIYw2BESITKpwo4L-62" vertex="1">
          <mxGeometry y="180" width="140" height="30" as="geometry" />
        </mxCell>
        <mxCell id="UAwCzIYw2BESITKpwo4L-69" value="queueOrder" style="text;strokeColor=none;fillColor=none;align=left;verticalAlign=middle;spacingLeft=4;spacingRight=4;overflow=hidden;points=[[0,0.5],[1,0.5]];portConstraint=eastwest;rotatable=0;whiteSpace=wrap;html=1;" parent="UAwCzIYw2BESITKpwo4L-62" vertex="1">
          <mxGeometry y="210" width="140" height="30" as="geometry" />
        </mxCell>
        <mxCell id="UAwCzIYw2BESITKpwo4L-70" value="orderDetailDone" style="text;strokeColor=none;fillColor=none;align=left;verticalAlign=middle;spacingLeft=4;spacingRight=4;overflow=hidden;points=[[0,0.5],[1,0.5]];portConstraint=eastwest;rotatable=0;whiteSpace=wrap;html=1;" parent="UAwCzIYw2BESITKpwo4L-62" vertex="1">
          <mxGeometry y="240" width="140" height="30" as="geometry" />
        </mxCell>
        <mxCell id="UAwCzIYw2BESITKpwo4L-80" value="checkout" style="text;strokeColor=none;fillColor=none;align=left;verticalAlign=middle;spacingLeft=4;spacingRight=4;overflow=hidden;points=[[0,0.5],[1,0.5]];portConstraint=eastwest;rotatable=0;whiteSpace=wrap;html=1;" parent="UAwCzIYw2BESITKpwo4L-62" vertex="1">
          <mxGeometry y="270" width="140" height="30" as="geometry" />
        </mxCell>
        <mxCell id="UAwCzIYw2BESITKpwo4L-71" value="Manage discount" style="swimlane;fontStyle=0;childLayout=stackLayout;horizontal=1;startSize=30;horizontalStack=0;resizeParent=1;resizeParentMax=0;resizeLast=0;collapsible=1;marginBottom=0;whiteSpace=wrap;html=1;" parent="1" vertex="1">
          <mxGeometry x="830" y="-480" width="140" height="120" as="geometry" />
        </mxCell>
        <mxCell id="UAwCzIYw2BESITKpwo4L-72" value="createDiscount" style="text;strokeColor=none;fillColor=none;align=left;verticalAlign=middle;spacingLeft=4;spacingRight=4;overflow=hidden;points=[[0,0.5],[1,0.5]];portConstraint=eastwest;rotatable=0;whiteSpace=wrap;html=1;" parent="UAwCzIYw2BESITKpwo4L-71" vertex="1">
          <mxGeometry y="30" width="140" height="30" as="geometry" />
        </mxCell>
        <mxCell id="UAwCzIYw2BESITKpwo4L-73" value="updateDiscount" style="text;strokeColor=none;fillColor=none;align=left;verticalAlign=middle;spacingLeft=4;spacingRight=4;overflow=hidden;points=[[0,0.5],[1,0.5]];portConstraint=eastwest;rotatable=0;whiteSpace=wrap;html=1;" parent="UAwCzIYw2BESITKpwo4L-71" vertex="1">
          <mxGeometry y="60" width="140" height="30" as="geometry" />
        </mxCell>
        <mxCell id="UAwCzIYw2BESITKpwo4L-74" value="deleteDiscount" style="text;strokeColor=none;fillColor=none;align=left;verticalAlign=middle;spacingLeft=4;spacingRight=4;overflow=hidden;points=[[0,0.5],[1,0.5]];portConstraint=eastwest;rotatable=0;whiteSpace=wrap;html=1;" parent="UAwCzIYw2BESITKpwo4L-71" vertex="1">
          <mxGeometry y="90" width="140" height="30" as="geometry" />
        </mxCell>
        <mxCell id="Iwypa6Qbn0hsZlnrWI1v-1" value="" style="endArrow=none;html=1;rounded=0;" edge="1" parent="1" source="G9M6UIIhyfGLvSzEwQoU-8" target="G9M6UIIhyfGLvSzEwQoU-20">
          <mxGeometry width="50" height="50" relative="1" as="geometry">
            <mxPoint x="140" as="sourcePoint" />
            <mxPoint x="190" y="-50" as="targetPoint" />
          </mxGeometry>
        </mxCell>
        <mxCell id="Iwypa6Qbn0hsZlnrWI1v-3" value="" style="endArrow=none;html=1;rounded=0;" edge="1" parent="1" source="G9M6UIIhyfGLvSzEwQoU-7" target="UAwCzIYw2BESITKpwo4L-43">
          <mxGeometry width="50" height="50" relative="1" as="geometry">
            <mxPoint x="60" y="510" as="sourcePoint" />
            <mxPoint x="110" y="460" as="targetPoint" />
          </mxGeometry>
        </mxCell>
        <mxCell id="Iwypa6Qbn0hsZlnrWI1v-4" value="Manage staff" style="ellipse;whiteSpace=wrap;html=1;" vertex="1" parent="1">
          <mxGeometry x="400" y="592.5" width="100" height="50" as="geometry" />
        </mxCell>
        <mxCell id="Iwypa6Qbn0hsZlnrWI1v-5" value="" style="endArrow=none;html=1;rounded=0;" edge="1" parent="1" source="Iwypa6Qbn0hsZlnrWI1v-4" target="G9M6UIIhyfGLvSzEwQoU-6">
          <mxGeometry width="50" height="50" relative="1" as="geometry">
            <mxPoint x="650" y="320" as="sourcePoint" />
            <mxPoint x="700" y="270" as="targetPoint" />
          </mxGeometry>
        </mxCell>
      </root>
    </mxGraphModel>
  </diagram>
</mxfile>
